Coordinates
version=1
nRows=9
nColumns=36
inDegrees=yes

Units are S.I. units (second, meters, Newtons, ...)
If the header above contains a line with 'inDegrees', this indicates whether rotational values are in degrees (yes) or radians (no).

endheader
time	pelvis_tilt	pelvis_list	pelvis_rotation	pelvis_tx	pelvis_ty	pelvis_tz	hip_flexion_r	hip_adduction_r	hip_rotation_r	knee_angle_r	knee_angle_r_beta	ankle_angle_r	subtalar_angle_r	mtp_angle_r	hip_flexion_l	hip_adduction_l	hip_rotation_l	knee_angle_l	knee_angle_l_beta	ankle_angle_l	subtalar_angle_l	mtp_angle_l	lumbar_extension	lumbar_bending	lumbar_rotation	arm_flex_r	arm_add_r	arm_rot_r	elbow_flex_r	pro_sup_r	arm_flex_l	arm_add_l	arm_rot_l	elbow_flex_l	pro_sup_l
      2.56250000	    -31.60585845	      0.56020260	     -0.20608877	      0.00519055	      0.50830907	     -0.06355204	    111.97994329	      0.62117078	     11.44329793	    105.80931348	      1.84672090	     23.42601508	    -19.63140319	     -7.49999987	    110.72811930	     -1.11035281	     14.52192575	    106.81781076	      1.86432250	     23.99603533	     -8.53854297	     -7.49999987	    -32.63675457	      0.78881946	      4.12661969	    115.50505445	     -6.23252538	     32.84451271	     40.09864024	     75.99406501	    108.36946418	      2.58471456	     30.95131002	     37.37729280	     67.99045334
      2.56666670	    -32.07577715	      0.63306193	     -0.39187735	      0.00092161	      0.50730247	     -0.06729219	    112.66572321	      0.67371112	     11.48584928	    105.84102537	      1.84727438	     23.39646076	    -19.50436711	     -7.49999987	    111.43897767	     -1.23685381	     14.31043477	    107.11071384	      1.86943462	     24.19321358	     -8.66208805	     -7.49999987	    -32.52741464	      0.62745722	      4.28649312	    116.93820050	     -5.05061060	     32.67544508	     40.67563162	     75.92067037	    109.42261371	      2.59788486	     30.84554647	     37.85915828	     67.96286869
      2.57083330	    -32.05963422	      0.50941962	     -0.39078966	      0.00589964	      0.50421627	     -0.06269329	    112.87135796	      0.60364948	     11.32891831	    106.37935015	      1.85666992	     23.86753048	    -18.82564280	     -7.49999987	    111.49275886	     -1.59287708	     14.46851551	    107.34574321	      1.87353666	     24.91378329	     -7.69803166	     -7.49999987	    -33.06419521	      0.76781315	      4.16920331	    118.57556822	     -3.38732381	     32.11494652	     41.37087960	     75.52495899	    110.23995002	      1.19460886	     32.00079159	     40.90117999	     67.88006573
      2.57500000	    -32.11407706	      0.60298942	     -0.58898215	      0.00148120	      0.49725017	     -0.06727541	    113.69567009	      0.49946139	     11.36469122	    106.91786948	      1.86606885	     23.65343170	    -18.46101768	     -7.49999987	    112.29945187	     -1.68776457	     14.15804255	    108.15799667	      1.88771315	     25.22121479	     -7.78015481	     -7.49999987	    -32.99626483	      0.64344945	      4.54177338	    120.02292575	     -2.54104623	     32.02402969	     41.85644860	     75.46849114	    110.72098909	      1.77147838	     32.39119197	     41.86005932	     67.85211006
      2.57916670	    -32.22122294	      0.45400501	     -0.82378471	      0.00224998	      0.49409402	     -0.06830076	    114.43066676	      0.39754561	     11.27821916	    107.51778572	      1.87653937	     24.23447974	    -17.02139478	     -7.49999987	    112.95641469	     -1.76566338	     14.38975363	    108.91339760	      1.90089739	     25.86691813	     -7.51530985	     -7.49999987	    -33.03965442	      0.86415538	      5.01257995	    121.74377590	     -1.85944743	     31.97486833	     42.30088865	     73.91527052	    111.07358046	      2.29479132	     33.13209210	     43.80053953	     66.79145088
      2.58333330	    -32.39736045	      0.48567072	     -0.86381423	      0.00762124	      0.49114358	     -0.06386748	    115.09448236	      0.39781471	     11.26456350	    108.31220872	      1.89040466	     24.31863727	    -16.91151300	     -7.49999987	    113.52068500	     -1.75068832	     14.70118151	    109.75938972	      1.91566274	     26.07358146	     -7.55078950	     -7.49999987	    -32.93979628	      0.72144269	      5.30807571	    122.83666654	     -0.97917357	     31.92552244	     42.69448059	     73.92789026	    111.75589156	      2.85922999	     33.18826406	     44.24946371	     66.73279474
      2.58750000	    -32.38574124	      0.44869013	     -1.12243004	      0.00771206	      0.49113920	     -0.06428147	    115.27012592	      0.51849277	     11.16707747	    108.53286191	      1.89425579	     24.48431995	    -16.42335963	     -7.49999987	    113.61621617	     -1.92850521	     15.01311297	    110.35138504	      1.92599500	     26.40722323	     -7.42418218	     -7.49999987	    -32.95057418	      0.66435007	      5.59238070	    123.15138196	     -0.48293425	     31.70981634	     44.25798104	     72.94646640	    111.64943327	      3.18027823	     33.18225747	     46.60240844	     66.01668665
      2.59166670	    -32.51356376	      0.54251504	     -1.49551888	      0.00796686	      0.48811878	     -0.06429123	    115.64897684	      0.75570899	     11.05221457	    108.85827479	      1.89993531	     24.74668771	    -16.11599257	     -7.49999987	    113.87959244	     -2.34855566	     15.33613146	    110.63829174	      1.93100247	     26.85734796	     -6.69596331	     -7.49999987	    -32.63695025	      0.57775817	      5.50366754	    122.54336660	      0.60828718	     30.63823081	     45.92518371	     77.15144604	    110.92668620	      2.87175264	     32.51657600	     50.12156192	     64.25085353
      2.59583330	    -32.48404918	      0.69943522	     -2.02362134	      0.00811950	      0.48415512	     -0.07250273	    115.95562839	      0.74587830	     11.18933638	    109.19995388	      1.90589874	     24.60035757	    -15.91372036	     -7.49999987	    114.34505412	     -2.40957042	     15.23032937	    111.56760639	      1.94722207	     26.93646151	     -6.91539823	     -7.49999987	    -32.41419828	      0.62086555	      5.34173609	    122.90533660	      1.45141908	     30.79300650	     46.56713197	     77.18305050	    111.53253016	      3.33779957	     32.42320912	     50.42184078	     64.25667139
